<svg width="150" height="150" viewBox="0 0 150 150" fill="none" xmlns="http://www.w3.org/2000/svg">
<path d="M74.8321 117.334V53.5843M74.8321 117.334C74.8362 121.207 75.6343 125.038 77.1769 128.59C78.7196 132.142 80.9741 135.341 83.8013 137.988C86.6285 140.634 89.9682 142.674 93.6144 143.979C97.2605 145.285 101.136 145.829 105 145.578C108.865 145.327 112.637 144.287 116.084 142.521C119.531 140.755 122.579 138.301 125.04 135.311C127.502 132.321 129.324 128.859 130.395 125.137C131.465 121.415 131.761 117.513 131.265 113.672M74.8321 117.334C74.828 121.207 74.0299 125.038 72.4873 128.59C70.9446 132.142 68.6901 135.341 65.8629 137.988C63.0357 140.634 59.696 142.674 56.0498 143.979C52.4037 145.285 48.5287 145.829 44.664 145.578C40.7993 145.327 37.0271 144.287 33.5803 142.521C30.1335 140.755 27.0853 138.301 24.6239 135.311C22.1625 132.321 20.3403 128.859 19.2696 125.137C18.199 121.415 17.9028 117.513 18.3992 113.672M74.8321 53.5843V25.2509M74.8321 53.5843C74.8359 59.9692 76.9086 66.1811 80.7396 71.2891C84.5706 76.397 89.9536 80.1261 96.0821 81.9176M74.8321 53.5843C74.8283 59.9692 72.7556 66.1811 68.9246 71.2891C65.0936 76.397 59.7106 80.1261 53.5821 81.9176M74.8321 25.2509C74.832 21.9914 75.5817 18.7754 77.0233 15.852C78.4648 12.9285 80.5596 10.3759 83.1456 8.39151C85.7315 6.40715 88.7393 5.04429 91.9363 4.40835C95.1332 3.77241 98.4336 3.88045 101.582 4.7241C104.731 5.56775 107.643 7.1244 110.093 9.27362C112.544 11.4228 114.467 14.107 115.715 17.1185C116.898 19.9746 117.442 23.0524 117.314 26.1371M74.8321 25.2509C74.8322 21.9914 74.0825 18.7754 72.6409 15.852C71.1994 12.9285 69.1046 10.3759 66.5186 8.39151C63.9327 6.40715 60.9249 5.04429 57.7279 4.40835C54.531 3.77241 51.2306 3.88045 48.0821 4.7241C44.9336 5.56775 42.0214 7.1244 39.5708 9.27362C37.1201 11.4228 35.1967 14.107 33.9494 17.1185C32.7665 19.9746 32.2217 23.0524 32.3506 26.1371M114.485 35.8759C116.115 33.0531 117.073 29.8932 117.287 26.6406C117.298 26.4728 117.307 26.3049 117.314 26.1371M117.314 26.1371L117.311 26.1364M117.314 26.1371C121.476 27.2078 125.341 29.2115 128.614 31.9965C131.889 34.7821 134.486 38.2763 136.21 42.2144C137.934 46.1526 138.74 50.4314 138.565 54.7269C138.391 59.0224 137.241 63.2218 135.203 67.0072M32.3506 26.1371C32.3576 26.3049 32.3666 26.4728 32.3777 26.6406C32.591 29.8932 33.5497 33.0531 35.1796 35.8759M32.3506 26.1371L32.3533 26.1364M32.3506 26.1371C28.1881 27.2078 24.3237 29.2115 21.05 31.9965C17.7756 34.7821 15.178 38.2763 13.4539 42.2144C11.7299 46.1526 10.9246 50.4314 11.099 54.7269C11.2735 59.0224 12.4231 63.2218 14.4608 67.0072M117.332 117.334C123.569 117.334 129.632 115.276 134.58 111.479C139.528 107.682 143.084 102.359 144.699 96.3342C146.313 90.3099 145.894 83.9212 143.508 78.1589C141.121 72.3967 136.9 67.583 131.499 64.4643M32.3321 117.334C26.0952 117.334 20.0326 115.276 15.0846 111.479C10.1367 107.682 6.57972 102.359 4.96547 96.3342C3.35122 90.3099 3.76986 83.9212 6.15646 78.1589C8.54307 72.3967 12.7643 67.583 18.1654 64.4643" stroke="white" stroke-width="8" stroke-linecap="round" stroke-linejoin="round"></path>
</svg>