<svg width="150" height="136" viewBox="0 0 150 136" fill="none" xmlns="http://www.w3.org/2000/svg">
<path d="M103.167 131.5V117.333C103.167 109.819 100.182 102.612 94.868 97.2986C89.5545 91.9851 82.3478 89 74.8333 89H32.3333C24.8189 89 17.6122 91.9851 12.2986 97.2986C6.98511 102.612 4 109.819 4 117.333V131.5M103.167 4.90667C109.242 6.48179 114.623 10.0298 118.464 14.9938C122.306 19.9578 124.39 26.0567 124.39 32.3333C124.39 38.61 122.306 44.7089 118.464 49.6729C114.623 54.6369 109.242 58.1849 103.167 59.76M145.667 131.5V117.333C145.662 111.056 143.573 104.957 139.726 99.9956C135.88 95.034 130.495 91.4903 124.417 89.9208M81.9167 32.3333C81.9167 47.9814 69.2314 60.6667 53.5833 60.6667C37.9353 60.6667 25.25 47.9814 25.25 32.3333C25.25 16.6853 37.9353 4 53.5833 4C69.2314 4 81.9167 16.6853 81.9167 32.3333Z" stroke="white" stroke-width="8" stroke-linecap="round" stroke-linejoin="round"></path>
</svg>