<svg width="53" height="45" viewBox="0 0 53 45" fill="none" xmlns="http://www.w3.org/2000/svg">
<path d="M34.5439 12.3216C38.5916 12.3216 41.0896 15.0776 41.0896 19.4298V32.1332H34.3226V21.0627C34.3226 19.4258 33.6321 18.2641 32.1251 18.2641C30.9634 18.2641 29.9723 18.9952 29.6291 20.3295V32.1292H22.9169V21.0627C22.9169 19.4258 22.2284 18.2641 20.7195 18.2641C19.5578 18.2641 18.524 18.9952 18.2235 20.3295V32.1292H11.4625V12.7522H18.2235V14.3444C19.2125 13.138 21.0667 12.3135 23.2175 12.3135C25.6729 12.3135 27.3951 13.2599 28.5568 14.6389C29.7205 13.4406 31.7006 12.3216 34.5439 12.3216Z" fill="#002A5C"/>
<path d="M46.8107 5.48349H38.7134V0H52.5338V44.6965H20.9591V39.213H46.8107V5.48349Z" fill="#002A5C"/>
<path d="M5.72517 39.2171H13.8245V44.7006H0V0.00411987H31.5768V5.48761H5.72517V39.2171Z" fill="#002A5C"/>
</svg>
