<svg xmlns="http://www.w3.org/2000/svg" xmlns:xlink="http://www.w3.org/1999/xlink" width="196" height="166" viewBox="0 0 196 166">
  <defs>
    <style>
      .cls-1 {
        clip-path: url(#clip-ICN_9LEVELS);
      }

      .cls-2 {
        fill: #f9f9f9;
      }

      .cls-3 {
        fill: #657383;
      }

      .cls-4 {
        fill: #fff;
      }
    </style>
    <clipPath id="clip-ICN_9LEVELS">
      <rect width="196" height="166"/>
    </clipPath>
  </defs>
  <g id="ICN_9LEVELS" class="cls-1">
    <rect class="cls-4" width="196" height="166"/>
    <g id="Gruppe_25" data-name="Gruppe 25">
      <rect id="Rechteck_11" data-name="Rechteck 11" class="cls-2" width="196" height="166"/>
      <g id="Gruppe_24" data-name="Gruppe 24" transform="translate(35.31 47.554)">
        <g id="Gruppe_16" data-name="Gruppe 16" transform="translate(-3.31 52.568)">
          <path id="Pfad_1341" data-name="Pfad 1341" class="cls-3" d="M1.3,98.6a.642.642,0,0,1-.651.705.708.708,0,0,1,0-1.411C1.031,97.841,1.3,98.166,1.3,98.6ZM.109,107.227v-6.89H1.194v6.89Z" transform="translate(0 -97.298)"/>
          <path id="Pfad_1342" data-name="Pfad 1342" class="cls-3" d="M4.754,104.1c0-.814-.054-1.248-.054-1.79h.977l.054.814h.054a1.8,1.8,0,0,1,1.573-.922c.977,0,1.682.705,1.682,2.387V109.2H7.955V104.8c0-.814-.163-1.628-.977-1.628a1.153,1.153,0,0,0-1.031,1.085,2.236,2.236,0,0,0-.054.651v4.34H4.809V104.1Z" transform="translate(-2.15 -99.27)"/>
          <path id="Pfad_1343" data-name="Pfad 1343" class="cls-3" d="M14.663,108.105a1.979,1.979,0,0,0,1.085.38.955.955,0,0,0,1.031-.977c0-.543-.163-.868-.868-1.356a2.282,2.282,0,0,1-1.356-1.953,1.823,1.823,0,0,1,1.9-1.9,2.131,2.131,0,0,1,1.248.38l-.271.814a1.715,1.715,0,0,0-.922-.326.824.824,0,0,0-.868.868c0,.434.163.705.868,1.194a2.451,2.451,0,0,1,1.411,2.116,1.935,1.935,0,0,1-2.062,2.062,2.656,2.656,0,0,1-1.356-.38Z" transform="translate(-6.633 -99.316)"/>
          <path id="Pfad_1344" data-name="Pfad 1344" class="cls-3" d="M23.653,99.5v1.628h1.3v.814h-1.3v4.123c0,.922.326,1.139.705,1.139a1.058,1.058,0,0,0,.434-.054l.054.814a2.94,2.94,0,0,1-.814.109,1.323,1.323,0,0,1-1.085-.434,2.481,2.481,0,0,1-.434-1.736v-3.96H21.7v-.814h.814V99.934Z" transform="translate(-9.927 -98.035)"/>
          <path id="Pfad_1345" data-name="Pfad 1345" class="cls-3" d="M30.4,98.6a.653.653,0,1,1-.651-.705C30.185,97.841,30.4,98.166,30.4,98.6Zm-1.139,8.626v-6.89h1.085v6.89Z" transform="translate(-13.312 -97.298)"/>
          <path id="Pfad_1346" data-name="Pfad 1346" class="cls-3" d="M34.9,99.5v1.628h1.356v.814h-1.3v4.123c0,.922.326,1.139.705,1.139a1.058,1.058,0,0,0,.434-.054l.054.814a2.94,2.94,0,0,1-.814.109,1.323,1.323,0,0,1-1.085-.434,2.481,2.481,0,0,1-.434-1.736v-3.96H33v-.814h.814V99.934Z" transform="translate(-15.096 -98.035)"/>
          <path id="Pfad_1347" data-name="Pfad 1347" class="cls-3" d="M44.632,107.446c0,.76.054,1.356.054,1.9h-.977l-.109-.705h-.054a1.78,1.78,0,0,1-1.465.814c-1.194,0-1.682-.922-1.682-2.658v-4.34h1.085v4.178c0,1.085.163,1.9.922,1.9a1.042,1.042,0,0,0,.977-.922,2.236,2.236,0,0,0,.054-.651V102.4h1.085v5.046Z" transform="translate(-18.482 -99.362)"/>
          <path id="Pfad_1348" data-name="Pfad 1348" class="cls-3" d="M51.753,99.5v1.628h1.3v.814h-1.3v4.123c0,.922.326,1.139.705,1.139a1.058,1.058,0,0,0,.434-.054l.054.814a2.94,2.94,0,0,1-.814.109,1.323,1.323,0,0,1-1.085-.434,2.481,2.481,0,0,1-.434-1.736v-3.96H49.8v-.814h.814V99.934Z" transform="translate(-22.782 -98.035)"/>
          <path id="Pfad_1349" data-name="Pfad 1349" class="cls-3" d="M57.785,105.889c0,2.116.814,2.55,1.628,2.55a2.2,2.2,0,0,0,1.139-.271l.163.814a3.3,3.3,0,0,1-1.519.326c-1.628,0-2.5-1.356-2.5-3.472,0-2.224.977-3.635,2.333-3.635,1.411,0,1.953,1.465,1.953,3.038a2.432,2.432,0,0,1-.054.651Zm2.17-.814c0-1.356-.488-1.953-1.031-1.953-.705,0-1.085,1.031-1.139,1.953Z" transform="translate(-25.938 -99.27)"/>
          <path id="Pfad_1350" data-name="Pfad 1350" class="cls-3" d="M70.568,106.728v-6.022H69.7v-.814h.868v-.434a3,3,0,0,1,.6-2.062,2.007,2.007,0,0,1,2.224-.434l-.163.868a1.675,1.675,0,0,0-.6-.109c-.76,0-.977.814-.977,1.736v.434H72.9v.814H71.653v6.076H70.568Z" transform="translate(-31.885 -96.8)"/>
          <path id="Pfad_1351" data-name="Pfad 1351" class="cls-3" d="M80.8,105.826c0,2.658-1.248,3.581-2.279,3.581-1.248,0-2.224-1.139-2.224-3.526,0-2.5,1.139-3.581,2.333-3.581S80.8,103.439,80.8,105.826Zm-3.418,0c0,1.139.217,2.713,1.194,2.713.922,0,1.139-1.628,1.139-2.713,0-1.031-.217-2.658-1.194-2.658C77.6,103.168,77.385,104.741,77.385,105.826Z" transform="translate(-34.905 -99.316)"/>
          <path id="Pfad_1352" data-name="Pfad 1352" class="cls-3" d="M86.654,104.1c0-.6-.054-1.248-.054-1.79h.977l.054,1.085h.054A1.673,1.673,0,0,1,89.15,102.2h.217v1.085H89.15a1.463,1.463,0,0,0-1.3,1.411,2.235,2.235,0,0,0-.054.651v3.8H86.709V104.1Z" transform="translate(-39.617 -99.27)"/>
          <path id="Pfad_1353" data-name="Pfad 1353" class="cls-3" d="M97.485,102.4l.868,3.852c.108.488.217,1.085.326,1.682h.054c.054-.543.163-1.139.271-1.682l.868-3.852h1.085l-1.79,6.89H98.19L96.4,102.4Z" transform="translate(-44.1 -99.362)"/>
          <path id="Pfad_1354" data-name="Pfad 1354" class="cls-3" d="M109.515,107.671a14.23,14.23,0,0,0,.054,1.573h-.977l-.054-.705h-.054a1.492,1.492,0,0,1-1.356.814A1.73,1.73,0,0,1,105.5,107.4c0-1.736,1.356-2.5,2.93-2.5v-.217c0-.922-.217-1.573-1.085-1.573a1.7,1.7,0,0,0-1.139.38l-.217-.76a3.076,3.076,0,0,1,1.628-.434c1.356,0,1.953.922,1.953,2.441v2.93Zm-1.031-2.007a1.639,1.639,0,0,0-1.9,1.628c0,.922.434,1.248.814,1.248.488,0,.868-.38,1.031-1.031a.923.923,0,0,0,.054-.38Z" transform="translate(-48.263 -99.316)"/>
          <path id="Pfad_1355" data-name="Pfad 1355" class="cls-3" d="M115.5,97h1.085v9.874H115.5Z" transform="translate(-52.837 -96.891)"/>
          <path id="Pfad_1356" data-name="Pfad 1356" class="cls-3" d="M124.232,107.446c0,.76.054,1.356.054,1.9h-.977l-.109-.705h-.054a1.78,1.78,0,0,1-1.465.814c-1.194,0-1.682-.922-1.682-2.658v-4.34h1.085v4.178c0,1.085.163,1.9.922,1.9a1.042,1.042,0,0,0,.977-.922,2.236,2.236,0,0,0,.054-.651V102.4h1.085v5.046Z" transform="translate(-54.896 -99.362)"/>
          <path id="Pfad_1357" data-name="Pfad 1357" class="cls-3" d="M130.885,105.889c0,2.116.814,2.55,1.628,2.55a2.2,2.2,0,0,0,1.139-.271l.163.814a3.3,3.3,0,0,1-1.519.326c-1.628,0-2.5-1.356-2.5-3.472,0-2.224.977-3.635,2.333-3.635,1.411,0,1.953,1.465,1.953,3.038a2.433,2.433,0,0,1-.054.651Zm2.17-.814c0-1.356-.488-1.953-1.031-1.953-.705,0-1.085,1.031-1.139,1.953Z" transform="translate(-59.379 -99.27)"/>
          <path id="Pfad_1358" data-name="Pfad 1358" class="cls-3" d="M143.563,108.105a1.979,1.979,0,0,0,1.085.38.955.955,0,0,0,1.031-.977c0-.543-.163-.868-.868-1.356a2.282,2.282,0,0,1-1.356-1.953,1.823,1.823,0,0,1,1.9-1.9,2.131,2.131,0,0,1,1.248.38l-.271.814a1.715,1.715,0,0,0-.922-.326.824.824,0,0,0-.868.868c0,.434.163.705.868,1.194a2.451,2.451,0,0,1,1.411,2.116,1.935,1.935,0,0,1-2.062,2.062,2.656,2.656,0,0,1-1.356-.38Z" transform="translate(-65.601 -99.316)"/>
          <path id="Pfad_1359" data-name="Pfad 1359" class="cls-3" d="M151.694,102.4l.922,3.96c.109.543.163.977.271,1.411h.054c.054-.38.163-.922.271-1.411l.814-3.96h1.085l-1.139,4.449a14.117,14.117,0,0,1-1.682,4.449,3.535,3.535,0,0,1-1.248,1.031l-.434-.922a3.516,3.516,0,0,0,.977-.868,4.1,4.1,0,0,0,.6-1.194c.054-.163.109-.217.109-.326a.489.489,0,0,0-.054-.271L150.5,102.4Z" transform="translate(-68.849 -99.362)"/>
          <path id="Pfad_1360" data-name="Pfad 1360" class="cls-3" d="M160.163,108.105a1.979,1.979,0,0,0,1.085.38.955.955,0,0,0,1.031-.977c0-.543-.163-.868-.868-1.356a2.282,2.282,0,0,1-1.356-1.953,1.823,1.823,0,0,1,1.9-1.9,2.131,2.131,0,0,1,1.248.38l-.271.814a1.715,1.715,0,0,0-.922-.326.824.824,0,0,0-.868.868c0,.434.163.705.868,1.194a2.451,2.451,0,0,1,1.411,2.116,1.935,1.935,0,0,1-2.062,2.062,2.656,2.656,0,0,1-1.356-.38Z" transform="translate(-73.195 -99.316)"/>
          <path id="Pfad_1361" data-name="Pfad 1361" class="cls-3" d="M169.153,99.5v1.628h1.3v.814h-1.3v4.123c0,.922.326,1.139.705,1.139a1.057,1.057,0,0,0,.434-.054l.054.814a2.94,2.94,0,0,1-.814.109,1.323,1.323,0,0,1-1.085-.434,2.481,2.481,0,0,1-.434-1.736v-3.96H167.2v-.814h.814V99.934Z" transform="translate(-76.488 -98.035)"/>
          <path id="Pfad_1362" data-name="Pfad 1362" class="cls-3" d="M175.185,105.889c0,2.116.814,2.55,1.628,2.55a2.2,2.2,0,0,0,1.139-.271l.163.814a3.3,3.3,0,0,1-1.519.326c-1.628,0-2.5-1.356-2.5-3.472,0-2.224.977-3.635,2.333-3.635,1.411,0,1.953,1.465,1.953,3.038a2.433,2.433,0,0,1-.054.651Zm2.116-.814c0-1.356-.488-1.953-1.031-1.953-.705,0-1.085,1.031-1.139,1.953Z" transform="translate(-79.645 -99.27)"/>
          <path id="Pfad_1363" data-name="Pfad 1363" class="cls-3" d="M183.854,104.1c0-.814-.054-1.248-.054-1.79h.977l.054.868h.054a1.785,1.785,0,0,1,1.573-.977,1.492,1.492,0,0,1,1.465,1.031h.054a1.613,1.613,0,0,1,.705-.76,1.874,1.874,0,0,1,.977-.271c.922,0,1.628.651,1.628,2.441V109.2H190.2v-4.34c0-.922-.109-1.79-.977-1.79-.434,0-.868.38-1.031,1.031a2.035,2.035,0,0,0-.054.6v4.449h-1.085v-4.5c0-.76-.109-1.573-.977-1.573-.434,0-.922.38-1.031,1.139a2.034,2.034,0,0,0-.054.6V109.2h-1.085v-5.1Z" transform="translate(-84.082 -99.27)"/>
          <path id="Pfad_1364" data-name="Pfad 1364" class="cls-3" d="M199.463,108.105a1.979,1.979,0,0,0,1.085.38.955.955,0,0,0,1.031-.977c0-.543-.163-.868-.868-1.356a2.282,2.282,0,0,1-1.356-1.953,1.823,1.823,0,0,1,1.9-1.9,2.131,2.131,0,0,1,1.248.38l-.271.814a1.715,1.715,0,0,0-.922-.326.824.824,0,0,0-.868.868c0,.434.163.705.868,1.194a2.451,2.451,0,0,1,1.411,2.116,1.935,1.935,0,0,1-2.062,2.062,2.656,2.656,0,0,1-1.356-.38Z" transform="translate(-91.173 -99.316)"/>
        </g>
        <g id="Gruppe_23" data-name="Gruppe 23" transform="translate(-7.236 0.111)">
          <g id="Gruppe_18" data-name="Gruppe 18" transform="translate(110.796)">
            <g id="Gruppe_17" data-name="Gruppe 17" transform="translate(4.403 4.334)">
              <path id="Pfad_1365" data-name="Pfad 1365" class="cls-3" d="M211.556,27.631l-5.263-4.395L205.1,16.455l3.472-5.968L215.028,8.1l6.456,2.387,3.472,5.968-1.194,6.782-5.317,4.395Z" transform="translate(-205.1 -8.1)"/>
            </g>
          </g>
          <g id="Gruppe_21" data-name="Gruppe 21" transform="translate(0 15.256)">
            <g id="Gruppe_20" data-name="Gruppe 20" transform="translate(3.926 4.377)">
              <g id="Gruppe_19" data-name="Gruppe 19">
                <path id="Pfad_1366" data-name="Pfad 1366" class="cls-3" d="M13.835,58.49c0,4.883-2.224,7.541-6.944,7.541-4.5,0-6.782-2.658-6.782-7.324v-.76h4.34v1.031c0,2.062.922,2.875,2.387,2.875,1.628,0,2.55-.814,2.55-3.581V52.956a4.34,4.34,0,0,1-4.232,2.55C1.682,55.56,0,53.227,0,48.941V43.624C0,38.958,2.441,36.3,6.944,36.3s6.944,2.658,6.944,7.324V58.49ZM9.277,48.561V43.353c0-2.062-.922-2.821-2.387-2.821S4.5,41.291,4.5,43.353v5.208c0,2.062.922,2.875,2.387,2.875S9.277,50.623,9.277,48.561Z" transform="translate(0 -36.3)"/>
                <path id="Pfad_1367" data-name="Pfad 1367" class="cls-3" d="M43,37h4.557V61.9h7.487v4.123H43Z" transform="translate(-19.671 -36.62)"/>
                <path id="Pfad_1368" data-name="Pfad 1368" class="cls-3" d="M73.457,49.207H79.7V53.33H73.457v8.518h7.867v4.123H68.9V37H81.324v4.123H73.457Z" transform="translate(-31.519 -36.62)"/>
                <path id="Pfad_1369" data-name="Pfad 1369" class="cls-3" d="M103.184,60.654,106.656,37h4.178l-4.5,29.026H99.549L95.1,37h4.612Z" transform="translate(-43.505 -36.62)"/>
                <path id="Pfad_1370" data-name="Pfad 1370" class="cls-3" d="M132.457,49.207H138.7V53.33h-6.239v8.518h7.867v4.123H127.9V37h12.424v4.123h-7.867Z" transform="translate(-58.51 -36.62)"/>
                <path id="Pfad_1371" data-name="Pfad 1371" class="cls-3" d="M155.2,37h4.557V61.9h7.487v4.123H155.2Z" transform="translate(-70.999 -36.62)"/>
                <path id="Pfad_1372" data-name="Pfad 1372" class="cls-3" d="M187.236,36.4c4.449,0,6.727,2.658,6.727,7.324v.922h-4.34V43.453c0-2.062-.814-2.875-2.279-2.875s-2.279.814-2.279,2.875c0,5.968,8.9,7.107,8.9,15.408,0,4.666-2.333,7.324-6.782,7.324-4.5,0-6.782-2.658-6.782-7.324v-1.79h4.286v2.062c0,2.062.922,2.821,2.387,2.821s2.387-.76,2.387-2.821c0-5.968-8.9-7.107-8.9-15.408C180.509,39.058,182.787,36.4,187.236,36.4Z" transform="translate(-82.527 -36.346)"/>
              </g>
            </g>
          </g>
          <g id="Gruppe_22" data-name="Gruppe 22" transform="translate(120.785 8.078)">
            <path id="Pfad_1373" data-name="Pfad 1373" class="cls-2" d="M224.29,25.345V18.021A2.61,2.61,0,0,0,222.5,15.2V27.082h4.883V25.4H224.29Z" transform="translate(-218.645 -15.091)"/>
            <path id="Pfad_1374" data-name="Pfad 1374" class="cls-2" d="M217.459,22.812a1.753,1.753,0,0,0,1.194-.38V21.022a1.058,1.058,0,0,1-.434.054c-.6,0-.977-.326-.977-1.194V17.767c0-.868.38-1.139.977-1.139a1.2,1.2,0,0,1,.434.054V15h-.434c-1.845,0-2.821,1.085-2.821,2.984v2.17C215.343,21.89,216.049,22.812,217.459,22.812Z" transform="translate(-215.395 -15)"/>
            <path id="Pfad_1375" data-name="Pfad 1375" class="cls-2" d="M218.6,32.719a1.584,1.584,0,0,1-.488.109c-.6,0-.977-.326-.977-1.194V31.2H215.4v.326c0,1.9.977,2.984,2.767,2.984h.434v-1.79Z" transform="translate(-215.397 -22.411)"/>
          </g>
        </g>
      </g>
    </g>
  </g>
</svg>
