<?xml version="1.0" encoding="UTF-8"?>
<svg id="Ebene_2" data-name="Ebene 2" xmlns="http://www.w3.org/2000/svg" viewBox="0 0 1118.41 238.07">
  <defs>
    <style>
      .cls-1, .cls-2 {
        fill: #002a5c;
      }

      .cls-2 {
        font-family: Calibre-Medium, Calibre;
        font-size: 84.99px;
        font-weight: 500;
        isolation: isolate;
      }
    </style>
  </defs>
  <g id="LOGO_R_L_POS" data-name="LOGO R L POS">
    <g id="Signet">
      <path class="cls-1" d="M170.09,62.05c19.93,0,32.23,13.57,32.23,35v62.55h-33.32v-54.51c0-8.06-3.4-13.78-10.82-13.78-5.72,0-10.6,3.6-12.29,10.17v58.1h-33.05v-54.49c0-8.06-3.39-13.78-10.82-13.78-5.72,0-10.81,3.6-12.29,10.17v58.1h-33.29v-95.41h33.29v7.84c4.87-5.94,14-10,24.59-10,12.09,0,20.57,4.66,26.29,11.45,5.73-5.9,15.48-11.41,29.48-11.41Z"/>
      <path class="cls-1" d="M230.49,28.38h-39.87V1.38h68.05v220.08H103.2v-27h127.29V28.38Z"/>
      <path class="cls-1" d="M28.19,194.48h39.88v27H0V1.4h155.48v27H28.19v166.08Z"/>
    </g>
    <g id="mischok">
      <path class="cls-1" d="M482.44,40.95c19.54,0,31.6,13.3,31.6,34.29v61.33h-32.64v-53.43c0-7.9-3.33-13.51-10.6-13.51-5.61,0-10.4,3.54-12.06,10v57h-32.43v-53.49c0-7.9-3.32-13.51-10.6-13.51-5.61,0-10.6,3.54-12,10v57h-32.71V43.02h32.64v7.7c4.78-5.82,13.71-9.77,24.11-9.77,11.85,0,20.16,4.57,25.77,11.22,5.64-5.82,15.2-11.22,28.92-11.22Z"/>
      <path class="cls-1" d="M546.05,35.13c-10,0-18.51-6.86-18.51-17.47s8.53-17.66,18.51-17.66,18.5,6.86,18.5,17.66-8.55,17.47-18.5,17.47ZM562.26,136.57h-32.64V43.02h32.64v93.55Z"/>
      <path class="cls-1" d="M604.77,107.67c1.45,5.2,6,8.11,11.85,8.11,5.4,0,9.56-2.08,9.56-6.44,0-3.54-2.7-4.79-7.28-5.82l-18.29-3.75c-15.59-3.32-25.78-10.81-25.78-27.23,0-20,17.88-31.59,39.91-31.59,25.57,0,39.5,11.84,42.41,30.35h-30.15c-1-3.95-4-7.49-11.43-7.49-4.79,0-8.73,2.08-8.73,6.24,0,2.91,2.07,4.36,6.44,5.19l18.5,4.37c17.06,3.95,26.22,12.89,26.22,28.06,0,20-18.08,31-41,31s-41.16-10.81-44.07-31h31.84Z"/>
      <path class="cls-1" d="M711.76,40.95c25.15,0,40.74,15,43.44,36.79h-31.59c-.83-5.61-5.2-9.77-11.85-9.77-9.15,0-15,8.52-15,21.83s5.82,21.61,15,21.61c6.65,0,11-4,11.85-9.56h31.59c-2.7,21.62-18.29,36.8-43.44,36.8-28.06,0-47.19-20-47.19-48.85s19.13-48.85,47.19-48.85Z"/>
      <path class="cls-1" d="M764.07,1.45h32.64v49.68c5.2-5.82,14.34-10.18,25.15-10.18,20.79,0,33,13.51,33,34.29v61.33h-32.37v-53.43c0-7.69-4-13.3-12.27-13.3-6.44,0-11.85,3.74-13.51,10.19v56.54h-32.64V1.45Z"/>
      <path class="cls-1" d="M913.49,138.67c-28.27,0-47.81-20-47.81-48.85s19.54-48.85,47.81-48.85,47.81,19.95,47.81,48.85-19.3,48.85-47.81,48.85ZM913.49,67.78c-10,0-15.59,9.15-15.59,22s5.61,21.89,15.59,21.89,15.8-8.94,15.8-21.82-5.61-22.09-15.8-22.09v.02Z"/>
      <path class="cls-1" d="M1010.58,101.85l-6.23,7.28v27.44h-32.64V1.45h32.64v71.51l26.19-29.94h39.29l-35.55,38.88,36.59,54.67h-37.42l-22.87-34.72Z"/>
    </g>
    <g id="better._software." data-name="better. software.">
      <path class="cls-1" d="M379.45,221.16h-8.51v-55.32h8.51v20.77c1.7-2.13,5.44-4.09,9.61-4.09,11.06,0,17.53,8.94,17.53,19.75s-6.47,19.74-17.53,19.74c-4.17,0-7.91-2-9.61-4.09v3.24ZM379.45,209.41c1.57,3.07,4.72,5,8.17,5,6.55,0,10.46-5.19,10.46-12.16s-3.91-12.17-10.46-12.17c-3.45,0-6.6,1.93-8.17,5v14.33Z"/>
      <path class="cls-1" d="M445.91,209.41c-1.28,7.49-6.81,12.6-15.92,12.6-10.55,0-17.87-8-17.87-19.66s7.41-19.83,17.7-19.83,16.43,7.58,16.43,18.64v3.06h-25.79c.26,6.64,4.09,10.64,9.53,10.64,4.09,0,7.15-1.79,8.09-5.45h7.83ZM420.72,198.01h17.1c-.08-4.6-2.72-8.34-7.91-8.34-4.68,0-8.17,2.89-9.19,8.34h0Z"/>
      <path class="cls-1" d="M456,190.44h-6v-7.07h6v-10.12h8.51v10.12h8.51v7.07h-8.51v19.57c0,3.06,1.7,4.42,4.51,4.42,1.73-.04,3.41-.57,4.85-1.53v7.77c-1.98.98-4.17,1.45-6.38,1.36-6.72,0-11.49-3.58-11.49-11.07v-20.52Z"/>
      <path class="cls-1" d="M484.54,190.44h-6v-7.07h6v-10.12h8.51v10.12h8.51v7.07h-8.51v19.57c0,3.06,1.7,4.42,4.51,4.42,1.73-.04,3.41-.57,4.85-1.53v7.77c-1.98.98-4.17,1.45-6.38,1.36-6.73,0-11.49-3.58-11.49-11.07v-20.52Z"/>
      <path class="cls-1" d="M541.81,209.41c-1.28,7.49-6.81,12.6-15.91,12.6-10.56,0-17.87-8-17.87-19.66s7.4-19.83,17.7-19.83,16.42,7.58,16.42,18.64v3.06h-25.78c.25,6.64,4.08,10.64,9.53,10.64,4.08,0,7.14-1.79,8.08-5.45h7.83ZM516.62,198.01h17.1c-.08-4.6-2.72-8.34-7.91-8.34-4.68,0-8.17,2.89-9.19,8.34Z"/>
      <path class="cls-1" d="M571.08,191.97c-1.51-.89-3.25-1.33-5-1.28-3.67-.17-6.9,2.39-7.57,6v24.43h-8.51v-37.75h8.51v3.92c1.72-3.01,4.95-4.84,8.42-4.77,1.42-.06,2.84.17,4.17.68l-.02,8.77Z"/>
      <path class="cls-1" d="M577.89,210.01c3.24-.04,5.91,2.55,5.95,5.79s-2.55,5.91-5.79,5.95c-3.24.04-5.91-2.55-5.95-5.79,0-.03,0-.05,0-.08-.06-3.18,2.47-5.81,5.65-5.87.05,0,.09,0,.14,0Z"/>
      <path class="cls-1" d="M616.52,210.26c.94,3.15,3.75,4.77,7.49,4.77s6.47-1.53,6.47-4.51c0-2-1.28-3.15-4.43-3.91l-7.82-1.88c-5.36-1.27-9.36-4.17-9.36-10.38,0-6.81,6-11.83,14.29-11.83,8.85,0,13.87,4.26,15.15,11.15h-8.31c-.77-2.47-3-4.17-6.89-4.17-3,0-6,1.36-6,4.34,0,1.7,1.19,2.81,3.91,3.49l8,1.87c6.47,1.53,9.7,5.19,9.7,10.72,0,7.49-6.21,12.09-14.72,12.09s-15-4.43-16.09-11.75h8.61Z"/>
      <path class="cls-1" d="M662.3,222.01c-10.63,0-17.95-8.17-17.95-19.74s7.32-19.75,17.95-19.75,18,8.17,18,19.75-7.36,19.74-18,19.74ZM662.3,189.84c-6.12,0-9.44,5.28-9.44,12.43s3.32,12.4,9.44,12.4,9.45-5.28,9.45-12.42-3.32-12.41-9.45-12.41h0Z"/>
      <path class="cls-1" d="M709,173.5c-1.24-.79-2.69-1.21-4.17-1.19-3.4,0-5.53,2-5.53,5.79v5.27h8.26v7.07h-8.26v30.72h-8.3v-30.72h-6.55v-7.07h6.55v-5.87c0-8.08,5.36-12.51,12.43-12.51,1.92-.09,3.84.26,5.61,1l-.04,7.51Z"/>
      <path class="cls-1" d="M717.11,190.44h-6v-7.07h6v-10.12h8.51v10.12h8.5v7.07h-8.5v19.57c0,3.06,1.7,4.42,4.5,4.42,1.73-.04,3.41-.57,4.85-1.53v7.77c-1.98.98-4.17,1.45-6.38,1.36-6.72,0-11.48-3.58-11.48-11.07v-20.52Z"/>
      <path class="cls-1" d="M775.91,210.18l7.32-26.81h8.25l-11,37.79h-8.48l-6.72-26.3-6.72,26.3h-8.56l-11-37.79h8.51l7.32,26.81,6.64-26.81h7.74l6.7,26.81Z"/>
      <path class="cls-1" d="M818.88,221.16v-2.13c-1.27,1.28-5.1,2.81-9.36,2.81-7.74,0-14.13-4.6-14.13-12.34,0-7.15,6.39-12.17,14.73-12.17,3.4,0,7.23,1.19,8.76,2.3v-3.07c0-3.83-2.38-6.8-7.23-6.8-3.41,0-5.53,1.44-6.47,4.08h-8.18c1.11-6.47,7.06-11.32,14.81-11.32,9.53,0,15.15,5.28,15.15,13.87v24.77h-8.08ZM818.88,207.97c-.93-2.39-4.34-3.83-7.74-3.83-3.83,0-7.83,1.61-7.83,5.36s4,5.44,7.83,5.44c3.4,0,6.81-1.44,7.74-3.83v-3.14Z"/>
      <path class="cls-1" d="M858.11,191.97c-1.51-.89-3.25-1.33-5-1.28-3.67-.17-6.9,2.39-7.57,6v24.43h-8.54v-37.75h8.51v3.92c1.72-3.01,4.95-4.84,8.42-4.77,1.42-.06,2.84.18,4.17.68v8.77Z"/>
      <path class="cls-1" d="M895.81,209.41c-1.28,7.49-6.81,12.6-15.92,12.6-10.55,0-17.87-8-17.87-19.66s7.41-19.83,17.7-19.83,16.43,7.58,16.43,18.64v3.06h-25.79c.26,6.64,4.09,10.64,9.53,10.64,4.09,0,7.15-1.79,8.09-5.45h7.83ZM870.62,198.01h17.1c-.08-4.6-2.72-8.34-7.91-8.34-4.68,0-8.17,2.89-9.19,8.34Z"/>
      <text class="cls-2" transform="translate(899.22 219.63)"><tspan x="0" y="0">_</tspan></text>
    </g>
    <g id="R-Symbol">
      <path class="cls-1" d="M1099.69,136.46c-10.45.12-19.02-8.26-19.14-18.72-.12-10.45,8.26-19.02,18.72-19.14s19.02,8.26,19.14,18.72c0,.07,0,.15,0,.22.2,10.25-7.95,18.72-18.2,18.92-.17,0-.35,0-.52,0ZM1099.69,101.82c-8.48,0-15.31,6.51-15.31,15.72s6.83,15.72,15.31,15.72,15.3-6.52,15.3-15.72-6.82-15.72-15.3-15.72ZM1097.83,121.36v6h-6.11v-19.86h9.62c4.45,0,7.45,2.59,7.45,7.14.12,2.58-1.36,4.96-3.72,6l4.34,6.72h-6.72l-3.62-6h-1.24ZM1100.41,112.57h-2.58v3.93h2.58c1.55,0,2.38-.62,2.38-1.86s-.79-2.07-2.38-2.07h0Z"/>
    </g>
  </g>
</svg>