<?xml version="1.0" encoding="UTF-8"?>
<svg id="Ebene_1" xmlns="http://www.w3.org/2000/svg" version="1.1" viewBox="0 0 699.9 138.7">
  <!-- Generator: Adobe Illustrator 30.6.0, SVG Export Plug-In . SVG Version: 2.1.4 Build 109)  -->
  <defs>
    <style>
      .st0 {
        fill: #002a5c;
      }
    </style>
  </defs>
  <g id="LOGO_L_POS">
    <g id="mischok">
      <path class="st0" d="M111.4,40.9c19.5,0,31.6,13.3,31.6,34.3v61.3h-32.6v-53.4c0-7.9-3.3-13.5-10.6-13.5s-10.4,3.5-12.1,10v57h-32.4v-53.5c0-7.9-3.3-13.5-10.6-13.5s-10.6,3.5-12,10v57H0V43h32.6v7.7c4.8-5.8,13.7-9.8,24.1-9.8s20.2,4.6,25.8,11.2c5.6-5.8,15.2-11.2,28.9-11.2Z"/>
      <path class="st0" d="M175,35.1c-10,0-18.5-6.9-18.5-17.5S165.1,0,175,0s18.5,6.9,18.5,17.7-8.5,17.5-18.5,17.5ZM191.3,136.6h-32.6V43h32.6v93.5Z"/>
      <path class="st0" d="M233.8,107.7c1.5,5.2,6,8.1,11.8,8.1s9.6-2.1,9.6-6.4-2.7-4.8-7.3-5.8l-18.3-3.8c-15.6-3.3-25.8-10.8-25.8-27.2s17.9-31.6,39.9-31.6,39.5,11.8,42.4,30.4h-30.1c-1-3.9-4-7.5-11.4-7.5s-8.7,2.1-8.7,6.2,2.1,4.4,6.4,5.2l18.5,4.4c17.1,3.9,26.2,12.9,26.2,28.1s-18.1,31-41,31-41.2-10.8-44.1-31h31.8Z"/>
      <path class="st0" d="M340.8,40.9c25.2,0,40.7,15,43.4,36.8h-31.6c-.8-5.6-5.2-9.8-11.8-9.8s-15,8.5-15,21.8,5.8,21.6,15,21.6,11-4,11.8-9.6h31.6c-2.7,21.6-18.3,36.8-43.4,36.8s-47.2-20-47.2-48.9,19.1-48.9,47.2-48.9Z"/>
      <path class="st0" d="M393.1,1.4h32.6v49.7c5.2-5.8,14.3-10.2,25.2-10.2,20.8,0,33,13.5,33,34.3v61.3h-32.4v-53.4c0-7.7-4-13.3-12.3-13.3s-11.8,3.7-13.5,10.2v56.5h-32.6V1.4Z"/>
      <path class="st0" d="M542.5,138.7c-28.3,0-47.8-20-47.8-48.9s19.5-48.8,47.8-48.8,47.8,20,47.8,48.8-19.3,48.9-47.8,48.9ZM542.5,67.8c-10,0-15.6,9.1-15.6,22s5.6,21.9,15.6,21.9,15.8-8.9,15.8-21.8-5.6-22.1-15.8-22.1h0Z"/>
      <path class="st0" d="M639.6,101.8l-6.2,7.3v27.4h-32.6V1.4h32.6v71.5l26.2-29.9h39.3l-35.6,38.9,36.6,54.7h-37.4l-22.9-34.7Z"/>
    </g>
  </g>
</svg>